<svg xmlns="http://www.w3.org/2000/svg" width="390" height="844" viewBox="0 0 390 844">
  <rect width="390" height="844" fill="#eef2ef"/><rect width="390" height="88" fill="#fff"/><line x1="0" y1="88" x2="390" y2="88" stroke="#dbe4df"/>
  <text x="20" y="61" fill="#46574f" font-size="28">‹</text><text x="195" y="60" text-anchor="middle" fill="#20312c" font-family="Noto Sans CJK SC,sans-serif" font-size="18" font-weight="700">个人资料</text><text x="360" y="60" text-anchor="end" fill="#2f6b57" font-family="Noto Sans CJK SC,sans-serif" font-size="13" font-weight="700">完成</text>
  <rect x="16" y="108" width="358" height="440" rx="22" fill="#fff"/>
  <circle cx="195" cy="171" r="42" fill="#e8f1ec" stroke="#9dbbad" stroke-width="2"/><text x="195" y="183" text-anchor="middle" fill="#2f6b57" font-family="Noto Sans CJK SC,sans-serif" font-size="34" font-weight="700">麦</text>
  <text x="32" y="246" fill="#3e5148" font-family="Noto Sans CJK SC,sans-serif" font-size="13" font-weight="700">选择头像</text>
  <g font-size="23" text-anchor="middle">
    <rect x="32" y="263" width="44" height="44" rx="13" fill="#e9f3ee" stroke="#2f6b57" stroke-width="2"/><text x="54" y="293" fill="#2f6b57">麦</text>
    <rect x="83" y="263" width="44" height="44" rx="13" fill="#f7f9f8" stroke="#dbe4df"/><text x="105" y="293" fill="#718b7f">鸽</text>
    <rect x="134" y="263" width="44" height="44" rx="13" fill="#f7f9f8" stroke="#dbe4df"/><text x="156" y="293" fill="#718b7f">鱼</text>
    <rect x="185" y="263" width="44" height="44" rx="13" fill="#f7f9f8" stroke="#dbe4df"/><text x="207" y="293" fill="#718b7f">十</text>
    <rect x="236" y="263" width="44" height="44" rx="13" fill="#f7f9f8" stroke="#dbe4df"/><text x="258" y="293" fill="#718b7f">经</text>
    <rect x="287" y="263" width="44" height="44" rx="13" fill="#f7f9f8" stroke="#dbe4df"/><text x="309" y="293">♡</text>
    <rect x="338" y="263" width="28" height="44" rx="11" fill="#eef4f1" stroke="#9dbbad"/><text x="352" y="293" fill="#2f6b57">＋</text>
  </g>
  <text x="32" y="345" fill="#3e5148" font-family="Noto Sans CJK SC,sans-serif" font-size="13" font-weight="700">昵称</text>
  <rect x="32" y="360" width="326" height="52" rx="13" fill="#f8faf9" stroke="#9ebcac"/><text x="48" y="393" fill="#20312c" font-family="Noto Sans CJK SC,sans-serif" font-size="15">保罗</text><text x="342" y="393" text-anchor="end" fill="#a5afaa" font-family="Noto Sans CJK SC,sans-serif" font-size="10">2 / 24</text>
  <rect x="32" y="433" width="326" height="78" rx="14" fill="#edf5f1"/><text x="50" y="459" fill="#3f6253" font-family="Noto Sans CJK SC,sans-serif" font-size="11" font-weight="700">本机隐私</text><text x="50" y="480" fill="#60756b" font-family="Noto Sans CJK SC,sans-serif" font-size="10">头像和昵称保存在本机，不需要上传手机号。</text><text x="50" y="498" fill="#60756b" font-family="Noto Sans CJK SC,sans-serif" font-size="10">昵称会在加入群聊时自动填写。</text>
</svg>
